<?xml version="1.0" standalone="no"?>
<!DOCTYPE svg PUBLIC "-//W3C//DTD SVG 20010904//EN"
 "http://www.w3.org/TR/2001/REC-SVG-20010904/DTD/svg10.dtd">
<svg version="1.0" xmlns="http://www.w3.org/2000/svg"
 width="432.000000pt" height="432.000000pt" viewBox="0 0 432.000000 432.000000"
 preserveAspectRatio="xMidYMid meet">
<metadata>
Created by potrace 1.14, written by Peter Selinger 2001-2017
</metadata>
<g transform="translate(0.000000,432.000000) scale(0.100000,-0.100000)"
fill="#000000" stroke="none">
<path d="M85 4228 c-3 -7 -4 -942 -3 -2078 l3 -2065 2075 0 2075 0 0 2075 0
2075 -2073 3 c-1653 2 -2074 0 -2077 -10z m4055 -2068 l0 -1980 -1980 0 -1980
0 0 1980 0 1980 1980 0 1980 0 0 -1980z"/>
<path d="M1920 3995 c-502 -80 -906 -432 -1155 -1007 -171 -397 -274 -880
-306 -1443 l-12 -206 -62 -62 c-46 -46 -68 -78 -84 -121 -21 -57 -22 -71 -19
-340 l3 -281 27 -52 c36 -68 89 -120 152 -149 l51 -24 1645 0 1645 0 51 24
c63 29 116 81 152 149 l27 52 3 281 c3 268 2 283 -19 339 -15 41 -39 76 -79
117 l-57 59 -12 222 c-34 651 -149 1155 -360 1574 -248 495 -606 783 -1069
863 -135 24 -388 26 -522 5z m417 -159 c2 -1 88 -544 193 -1207 104 -662 192
-1219 195 -1236 l6 -33 -191 0 -190 0 0 375 0 376 -25 24 c-23 24 -30 25 -138
25 -100 0 -117 -3 -141 -21 l-26 -20 0 -380 0 -379 -205 0 c-189 0 -205 1
-205 18 0 19 277 2359 285 2409 6 36 15 39 153 53 63 7 281 3 289 -4z m192
-37 c564 -158 940 -709 1105 -1619 39 -213 75 -581 76 -762 l0 -58 -442 0
-443 0 -190 1203 c-104 661 -191 1214 -193 1230 -5 32 -7 32 87 6z m-729 -14
c0 -13 -280 -2363 -285 -2392 -6 -33 -6 -33 -65 -33 -54 0 -60 2 -65 23 -3 12
-59 296 -125 631 -65 334 -122 611 -125 614 -3 3 -9 1 -14 -4 -5 -5 -73 -274
-150 -599 -78 -324 -146 -607 -152 -627 l-10 -38 -96 0 -96 0 7 138 c31 621
169 1206 378 1592 39 73 169 273 173 268 1 -2 39 -168 85 -370 58 -257 88
-368 97 -368 7 0 13 2 13 4 0 14 252 1075 259 1092 12 27 171 90 171 69z
m2015 -2626 c58 -51 67 -102 63 -352 -3 -209 -3 -213 -30 -257 -48 -82 107
-75 -1688 -75 -1795 0 -1640 -7 -1688 75 -27 44 -27 48 -30 257 -4 250 5 301
63 352 l36 31 1619 0 1619 0 36 -31z"/>
<path d="M2141 3187 c-12 -15 -151 -685 -151 -729 l0 -28 170 0 170 0 0 28 c0
44 -139 714 -151 729 -7 7 -15 13 -19 13 -4 0 -12 -6 -19 -13z"/>
<path d="M2714 3163 c3 -10 77 -339 165 -732 88 -393 163 -716 165 -719 6 -6
101 47 181 101 81 55 160 138 175 183 39 117 -37 522 -153 819 -26 67 -42 91
-102 151 -77 77 -190 142 -327 188 -92 31 -111 33 -104 9z"/>
</g>
</svg>
